<svg xmlns="http://www.w3.org/2000/svg"
shape-rendering="geometricPrecision"
width="4000" height="4000" viewBox="0 0 1024 1024"><rect width="100%" height="100%" fill="#FEFEFE" />
  <metadata>null</metadata>

<path d="
M 102.848 411.412
C 103.381 410.765 104.525 410.921 105.353 410.896
C 107.791 410.821 110.241 410.877 112.68 410.884
C 122.62 410.915 132.562 410.872 142.502 410.855
C 174.169 410.801 205.836 410.811 237.503 410.772
C 246.337 410.761 255.171 410.748 264.005 410.754
C 266.506 410.756 269.007 410.765 271.508 410.781
C 272.515 410.788 274.009 410.526 274.911 410.973
C 274.69 425.385 275.326 439.834 274.893 454.243
C 233.551 454.838 192.158 453.381 150.824 454.378
C 151.279 466.2 150.781 478.162 150.781 490
C 150.781 495.039 150.231 500.442 150.918 505.437
C 152.532 505.323 154.157 505.321 155.769 505.474
C 155.113 507.188 153.843 508.769 152.877 510.333
C 150.793 513.707 148.644 517.03 146.507 520.37
C 140.206 530.22 133.925 540.138 127.217 549.716
C 124.914 553.005 122.552 556.245 120.253 559.538
C 119.696 560.337 119.094 561.005 118.715 561.919
C 118.66 562.052 118.245 562.743 118.353 562.826
C 118.658 563.06 120.19 561.155 120.354 560.977
C 122.413 558.741 124.617 556.639 126.698 554.421
C 135.263 545.291 144.293 536.558 153.157 527.719
C 158.674 522.217 164.216 516.689 170.038 511.507
C 171.771 509.965 173.871 506.677 176.06 505.907
C 177.218 505.5 178.913 505.75 180.126 505.746
C 183.079 505.738 186.031 505.759 188.984 505.746
C 199.323 505.7 209.663 505.724 220.003 505.729
C 230.004 505.734 240.004 505.724 250.005 505.734
C 252.258 505.736 254.513 505.773 256.765 505.767
C 257.275 505.765 259.108 505.482 259.383 505.937
C 259.329 520.272 259.399 534.615 259.275 548.947
C 235.683 548.945 212.087 548.84 188.494 548.957
C 175.924 549.018 163.329 548.724 150.782 549.142
C 151.121 556.226 150.803 563.406 150.81 570.501
C 150.824 584.836 150.861 599.171 150.858 613.506
C 150.856 619.84 150.86 626.174 150.891 632.508
C 150.899 634.246 150.879 635.986 150.913 637.723
C 150.926 638.408 151.127 639.627 150.879 640.257
C 134.982 640.595 119.054 639.924 103.155 640.226
C 102.691 626.581 103.019 612.845 103.057 599.19
C 103.115 578.038 103.035 556.877 103.045 535.724
C 103.065 494.321 102.215 452.832 102.848 411.412 Z"
opacity="1" fill="rgb(59,59,62)" fill-rule="evenodd" />
<path d="
M 296.538 628.486
C 296.846 619.513 296.768 610.476 296.643 601.497
C 296.608 599.003 296.602 596.507 296.542 594.013
C 296.517 592.962 296.787 591.487 296.342 590.517
C 296.205 543.88 295.418 497.135 296.348 450.507
C 297.028 449.078 296.535 446.567 296.535 444.998
C 296.536 441.831 296.482 438.667 296.428 435.5
C 296.403 434.062 296.654 432.404 296.262 431.011
C 296.279 425.199 295.571 418.629 296.682 412.934
C 307.773 437.974 317.682 463.576 327.94 488.969
C 331.212 497.069 334.156 505.364 337.63 513.377
C 339.15 516.884 340.517 520.458 341.947 524.003
C 342.54 525.473 343.479 526.964 343.732 528.544
C 344.444 532.995 343.836 537.994 343.836 542.498
C 343.838 551.832 343.846 561.166 343.856 570.501
C 343.873 586.002 343.888 601.503 343.892 617.005
C 343.894 624.733 344.311 632.549 343.85 640.265
C 334.242 640.048 324.606 640.195 314.996 640.23
C 308.887 640.253 302.708 640.005 296.61 640.358
C 296.03 636.525 296.359 632.353 296.538 628.486 Z"
opacity="1" fill="rgb(60,60,62)" fill-rule="evenodd" />
<path d="
M 296.262 431.011
C 296.654 432.404 296.403 434.062 296.428 435.5
C 296.482 438.667 296.536 441.831 296.535 444.998
C 296.535 446.567 297.028 449.078 296.348 450.507
C 296.503 444.016 296.248 437.505 296.262 431.011 Z"
opacity="1" fill="rgb(129,124,140)" fill-rule="evenodd" />
<path d="
M 306.584 410.904
C 310.328 410.517 314.238 410.822 318.002 410.817
C 326.169 410.806 334.337 410.777 342.504 410.741
C 346.327 410.724 350.268 411.014 354.074 410.735
C 355.326 412.453 356.157 414.493 357.154 416.363
C 359.553 420.863 361.893 425.395 364.28 429.901
C 370.709 442.038 377.138 454.171 383.506 466.341
C 391.287 481.209 399.086 496.078 407.025 510.861
C 410.977 518.219 415.639 525.614 418.723 533.381
C 419.223 533.301 419.608 531.833 419.827 531.39
C 420.766 529.488 421.817 527.653 422.796 525.772
C 426.789 518.096 431.021 510.544 434.999 502.862
C 445.359 482.856 456.313 463.145 466.886 443.252
C 472.595 432.513 477.708 421.292 483.817 410.788
C 493.084 409.972 502.705 410.7 512.008 410.693
C 521.67 410.686 531.59 409.977 541.223 410.719
C 540.854 415.58 541.206 420.618 541.206 425.501
C 541.206 435.335 541.212 445.169 541.232 455.003
C 541.287 483.336 541.251 511.669 541.268 540.002
C 541.282 562.668 541.27 585.334 541.284 608
C 541.288 615.166 541.295 622.332 541.297 629.497
C 541.299 633.034 540.907 636.84 541.305 640.343
C 534.967 639.761 528.458 640.916 522.134 640.323
C 520.782 639.542 519.764 637.886 518.774 636.7
C 516.908 634.465 514.946 632.313 513.114 630.05
C 509.048 625.028 504.859 620.071 500.652 615.17
C 498.625 612.809 495.749 610.329 494.326 607.566
C 493.803 604.487 494.117 601.088 494.106 597.968
C 494.083 591.813 494.092 585.658 494.092 579.502
C 494.092 560.669 494.119 541.835 494.082 523.002
C 494.064 513.837 494.117 504.672 494.142 495.507
C 494.15 492.503 494.173 489.501 494.231 486.498
C 494.246 485.729 494.599 482.664 494.024 482.15
C 493.881 482.022 493.795 482.456 493.68 482.609
C 490.516 490.292 485.771 497.677 481.748 504.948
C 476.707 514.057 471.895 523.297 466.932 532.448
C 460.048 545.143 453.225 557.865 446.26 570.515
C 443.412 575.687 440.922 581.202 437.7 586.15
C 435.267 586.912 431.559 586.226 428.997 586.225
C 422.497 586.222 415.996 586.239 409.496 586.251
C 407.107 586.256 404.718 586.304 402.329 586.272
C 401.443 586.261 400.285 586.458 399.462 586.122
C 376.326 541.878 353.114 497.577 329.174 453.76
C 323.374 443.143 317.57 432.529 311.696 421.953
C 310.259 419.366 308.848 416.766 307.406 414.183
C 306.749 413.007 305.892 412.183 306.584 410.904 Z"
opacity="1" fill="rgb(59,59,61)" fill-rule="evenodd" />
<path d="
M 575.974 460.122
C 576.338 456.811 576.06 453.331 576.082 450
C 576.091 448.67 575.847 447.159 576.167 445.873
C 581.746 437.728 588.141 429.949 594.206 422.157
C 597.084 418.46 599.655 414.079 602.985 410.784
C 605.262 410.189 608.054 410.644 610.407 410.635
C 614.694 410.618 619.358 409.957 623.597 410.703
C 623.293 413.377 623.595 416.29 623.599 418.996
C 623.608 424.33 623.612 429.664 623.62 434.999
C 623.643 450.871 623.601 466.744 623.657 482.6
C 623.756 510.734 623.513 538.867 623.603 567
C 623.68 591.404 624.207 615.883 623.637 640.278
C 612.613 640.613 601.528 640.33 590.498 640.311
C 585.842 640.303 581.098 640.026 576.454 640.396
C 575.96 638.82 576.301 636.655 576.295 635.004
C 576.282 631.005 576.277 627.005 576.273 623.005
C 576.259 610.005 576.265 597.006 576.249 584.006
C 576.214 555.339 576.102 526.672 576.109 498.005
C 576.112 485.429 575.427 472.678 575.974 460.122 Z"
opacity="1" fill="rgb(60,60,62)" fill-rule="evenodd" />
<path d="
M 659.331 446.487
C 665.87 437.886 672.555 429.367 679.271 420.903
C 681.864 417.635 684.183 413.926 687.027 410.883
C 688.321 410.427 690.134 410.725 691.506 410.728
C 694.839 410.734 698.172 410.751 701.506 410.748
C 703.132 410.746 705.432 410.347 706.958 410.879
C 706.627 416.044 706.976 421.322 706.964 426.5
C 706.931 440.173 707.18 453.826 707.204 467.502
C 707.271 507.107 707.343 546.719 707.13 586.324
C 707.056 600.139 706.862 613.952 707.042 627.767
C 707.083 630.914 707.039 634.063 707.093 637.209
C 707.099 637.552 707.383 640.313 707.02 640.371
C 696.847 640.305 686.672 640.297 676.497 640.285
C 670.838 640.278 665.11 640.016 659.462 640.378
C 658.97 639.422 659.313 637.595 659.306 636.505
C 659.284 633.171 659.286 629.837 659.288 626.504
C 659.297 615.004 659.268 603.504 659.271 592.004
C 659.279 558.006 659.306 524.005 659.215 490.008
C 659.188 480.009 659.197 470.008 659.134 460.009
C 659.115 457.007 659.172 454.008 659.197 451.007
C 659.208 449.615 658.855 447.788 659.331 446.487 Z"
opacity="1" fill="rgb(60,60,62)" fill-rule="evenodd" />
<path d="
M 727.745 601.524
C 730.156 599.346 731.982 596.5 734.147 594.084
C 738.771 588.922 743.325 583.676 747.85 578.426
C 750.349 575.526 752.679 572.431 755.498 569.834
C 756.318 569.861 758.189 572.163 758.897 572.813
C 762.015 575.678 765.16 578.52 768.569 581.041
C 778.169 588.14 789.418 593.558 801.017 596.472
C 812.444 599.342 824.196 600.889 835.997 599.954
C 842.431 599.444 849.135 598.072 854.861 594.979
C 858.087 593.237 861.311 590.908 863.332 587.779
C 868.631 579.573 868.68 567.219 861.3 560.191
C 852.383 551.701 839.134 549.696 827.758 546.373
C 812.327 541.865 796.669 538.656 781.608 532.898
C 769.396 528.229 757.896 521.602 749.981 510.907
C 747.753 507.897 746.033 504.692 744.454 501.31
C 742.338 496.778 740.93 491.799 740.118 486.871
C 738.917 479.591 738.795 471.861 740.008 464.575
C 741.093 458.06 743.113 451.17 746.033 445.235
C 761.317 414.17 799.967 406.177 831.529 408.539
C 836.883 408.939 842.215 409.543 847.503 410.49
C 854.194 411.689 860.681 413.514 867.14 415.597
C 879.844 419.695 893.37 426.991 902.678 436.702
C 902.656 437.712 901.703 438.555 901.178 439.362
C 899.948 441.251 898.715 443.132 897.383 444.951
C 892.873 451.109 888.627 457.486 884.241 463.736
C 882.877 465.679 881.527 467.628 880.134 469.55
C 879.788 470.027 879.298 471.291 878.667 471.395
C 876.968 470.416 875.573 468.988 873.947 467.897
C 869.906 465.186 865.851 462.5 861.505 460.292
C 845.367 452.093 826.676 448.648 808.71 451.2
C 797.603 452.777 785.533 459.34 785.42 471.976
C 785.403 473.847 785.592 475.746 786.098 477.552
C 786.753 479.888 787.885 482.157 789.364 484.078
C 792.049 487.563 796.075 489.723 799.978 491.55
C 809.078 495.81 819.267 498.01 828.986 500.385
C 837.924 502.569 846.828 504.959 855.653 507.558
C 872.156 512.42 889.043 518.805 900.164 532.653
C 903.387 536.667 905.935 541.236 907.935 545.966
C 909.825 550.434 911.293 555.205 911.969 560.013
C 913.252 569.151 913.368 578.156 911.722 587.264
C 910.73 592.754 908.935 598.17 906.503 603.183
C 889.687 637.849 846.139 645.788 811.329 641.643
C 805.72 640.975 800.136 640.284 794.611 639.057
C 786.219 637.194 778.087 634.342 770.146 631.086
C 758.142 626.166 746.712 619.306 736.952 610.742
C 734.738 608.799 732.566 606.79 730.473 604.718
C 729.521 603.776 728.298 602.75 727.745 601.524 Z"
opacity="1" fill="rgb(60,59,61)" fill-rule="evenodd" />

</svg>